<svg width="235" height="122" viewBox="0 0 235 122" fill="none" xmlns="http://www.w3.org/2000/svg">
<g filter="url(#filter0_di_1022_2)">
<path d="M59.9346 2.23535C60.667 1.69824 61.4482 1.35645 62.2783 1.20996L102.342 101.259C102.83 102.479 103.636 103.529 104.759 104.408C105.882 105.238 107.273 105.897 108.934 106.386C110.643 106.825 112.107 107.167 113.328 107.411C114.598 107.606 116.136 107.802 117.942 107.997C118.138 108.778 118.235 109.438 118.235 109.975C118.235 110.561 118.138 111.098 117.942 111.586C107.396 111.195 99.5098 111 94.2852 111C88.6211 111 80.418 111.195 69.6758 111.586C69.4805 111 69.3828 110.414 69.3828 109.828C69.3828 109.193 69.4805 108.583 69.6758 107.997C79.5391 106.923 84.4707 105.067 84.4707 102.431C84.4707 101.601 84.373 100.746 84.1777 99.8672L73.5576 72.6211C70.335 72.5234 65.9893 72.4746 60.5205 72.4746C57.9326 72.4746 51.2188 72.5723 40.3789 72.7676L29.1729 101.259V102.138C29.1729 102.626 29.2461 103.09 29.3926 103.529C29.5879 103.969 29.8809 104.359 30.2715 104.701C30.7109 105.043 31.126 105.336 31.5166 105.58C31.9072 105.824 32.4443 106.068 33.1279 106.312C33.8604 106.508 34.4707 106.679 34.959 106.825C35.4961 106.923 36.2041 107.045 37.083 107.191C38.0107 107.338 38.7188 107.46 39.207 107.558C39.6953 107.606 40.4033 107.68 41.3311 107.777C42.3076 107.875 42.9912 107.948 43.3818 107.997C43.5771 108.778 43.6748 109.438 43.6748 109.975C43.6748 110.268 43.5771 110.805 43.3818 111.586C32.4443 111.195 26.292 111 24.9248 111C22.2881 111 15.501 111.195 4.56348 111.586C4.36816 111 4.27051 110.414 4.27051 109.828C4.27051 109.193 4.36816 108.583 4.56348 107.997C14.7197 106.825 20.5059 104.335 21.9219 100.526L53.416 21.1318L51.8047 16.8105C54.5879 14.9551 56.5166 12.9531 57.5908 10.8047C58.7139 8.65625 59.4951 5.7998 59.9346 2.23535ZM60.5205 66.7617C65.0127 66.7617 68.5527 66.7129 71.1406 66.6152L57.2246 30.5801H56.9316L42.9424 66.4688C47.5322 66.6641 53.3916 66.7617 60.5205 66.7617ZM186.497 0.916992C190.354 0.916992 194.188 1.18555 197.996 1.72266C201.854 2.21094 205.54 2.82129 209.056 3.55371C212.62 4.2373 215.989 4.9209 219.163 5.60449C222.337 6.28809 225.193 6.77637 227.732 7.06934C227.146 8.82715 226.854 11.9277 226.854 16.3711C226.854 25.0137 228.147 32.5088 230.735 38.8564C230.442 39.7354 229.539 40.2725 228.025 40.4678L224.876 33.7295C223.313 30.3604 221.434 27.04 219.236 23.7686C217.039 20.4482 214.402 17.4941 211.326 14.9062C208.25 12.2695 204.661 10.1455 200.56 8.53418C196.507 6.92285 191.819 6.11719 186.497 6.11719C181.907 6.11719 177.83 6.87402 174.266 8.3877C170.701 9.90137 167.576 11.9521 164.891 14.54C162.205 17.0791 159.935 20.0576 158.079 23.4756C156.224 26.8447 154.71 30.4336 153.538 34.2422C152.415 38.0508 151.585 41.957 151.048 45.9609C150.56 49.9648 150.315 53.8467 150.315 57.6064C150.315 63.8564 151.121 69.8379 152.732 75.5508C154.393 81.2637 156.956 86.3174 160.423 90.7119C163.89 95.0576 168.284 98.5244 173.606 101.112C178.978 103.7 185.374 104.994 192.796 104.994C207.005 104.994 217.747 100.551 225.022 91.6641C225.804 91.6641 226.438 91.8838 226.927 92.3232C227.464 92.7627 227.732 93.2998 227.732 93.9346C225.389 97.4014 222.532 100.404 219.163 102.943C215.843 105.482 212.303 107.582 208.543 109.242C204.783 110.854 200.975 112.05 197.117 112.831C193.309 113.612 189.769 114.003 186.497 114.003C182.933 114.003 179.075 113.612 174.925 112.831C170.823 112.099 166.697 110.854 162.547 109.096C158.445 107.338 154.49 105.043 150.682 102.211C146.922 99.3301 143.577 95.8145 140.647 91.6641C137.718 87.4648 135.374 82.5576 133.616 76.9424C131.858 71.3271 130.979 64.8818 130.979 57.6064C130.979 50.2822 131.858 43.8125 133.616 38.1973C135.374 32.5332 137.718 27.6016 140.647 23.4023C143.626 19.2031 147.02 15.6875 150.828 12.8555C154.686 9.97461 158.665 7.65527 162.767 5.89746C166.868 4.09082 170.97 2.82129 175.071 2.08887C179.173 1.30762 182.981 0.916992 186.497 0.916992Z" fill="#16C953"/>
</g>
<defs>
<filter id="filter0_di_1022_2" x="0.270508" y="0.916992" width="234.465" height="121.086" filterUnits="userSpaceOnUse" color-interpolation-filters="sRGB">
<feFlood flood-opacity="0" result="BackgroundImageFix"/>
<feColorMatrix in="SourceAlpha" type="matrix" values="0 0 0 0 0 0 0 0 0 0 0 0 0 0 0 0 0 0 127 0" result="hardAlpha"/>
<feOffset dy="4"/>
<feGaussianBlur stdDeviation="2"/>
<feComposite in2="hardAlpha" operator="out"/>
<feColorMatrix type="matrix" values="0 0 0 0 0 0 0 0 0 0 0 0 0 0 0 0 0 0 0.25 0"/>
<feBlend mode="normal" in2="BackgroundImageFix" result="effect1_dropShadow_1022_2"/>
<feBlend mode="normal" in="SourceGraphic" in2="effect1_dropShadow_1022_2" result="shape"/>
<feColorMatrix in="SourceAlpha" type="matrix" values="0 0 0 0 0 0 0 0 0 0 0 0 0 0 0 0 0 0 127 0" result="hardAlpha"/>
<feOffset dy="4"/>
<feGaussianBlur stdDeviation="2"/>
<feComposite in2="hardAlpha" operator="arithmetic" k2="-1" k3="1"/>
<feColorMatrix type="matrix" values="0 0 0 0 0 0 0 0 0 0 0 0 0 0 0 0 0 0 0.25 0"/>
<feBlend mode="normal" in2="shape" result="effect2_innerShadow_1022_2"/>
</filter>
</defs>
</svg>
